<svg width="143" height="60" viewBox="0 0 143 60" fill="none" xmlns="http://www.w3.org/2000/svg">
<path d="M0 55.7317V4.26829C0 1.90854 1.90854 0 4.26829 0H55.7317C58.0915 0 60 1.90854 60 4.26829V55.7317C60 58.0915 58.0915 60 55.7317 60H4.26829C1.90854 60 0 58.0915 0 55.7317Z" fill="#E3E3E3"/>
<path d="M48.122 18.0549L31.2866 8.33538C30.0549 7.62806 28.4817 8.0488 27.7744 9.27441C27.061 10.5061 27.4878 12.0793 28.7134 12.7866L41.689 20.2805L30 27.0305L14.4513 18.0549C13.2195 17.3415 11.6464 17.7683 10.9391 18.9939C10.2256 20.2256 10.6525 21.7988 11.8781 22.5061L27.4269 31.4817V49.4329C27.4269 50.8537 28.5793 52.0061 30 52.0061C31.4208 52.0061 32.5732 50.8537 32.5732 49.4329V31.4817L38.5915 28.0061L44.2622 24.7317V39.7134C44.2622 41.1341 45.4147 42.2866 46.8354 42.2866C48.2561 42.2866 49.4086 41.1341 49.4086 39.7134V20.2744C49.4086 19.3659 48.9147 18.5183 48.122 18.0549Z" fill="#131212" stroke="#131212"/>
<path d="M81.5511 30.5227V37H79.4276V22.4545H81.5227V27.8665H81.6577C81.9134 27.2794 82.304 26.813 82.8295 26.4673C83.3551 26.1217 84.0417 25.9489 84.8892 25.9489C85.6373 25.9489 86.2907 26.1027 86.8494 26.4105C87.4129 26.7183 87.8485 27.1776 88.1562 27.7884C88.4688 28.3944 88.625 29.152 88.625 30.0611V37H86.5014V30.3168C86.5014 29.5166 86.2955 28.8963 85.8835 28.456C85.4716 28.0109 84.8987 27.7884 84.1648 27.7884C83.6629 27.7884 83.2131 27.8949 82.8153 28.108C82.4223 28.321 82.1122 28.6335 81.8849 29.0455C81.6624 29.4527 81.5511 29.9451 81.5511 30.5227ZM92.4588 37V26.0909H94.5824V37H92.4588ZM93.5312 24.4077C93.1619 24.4077 92.8447 24.2846 92.5795 24.0384C92.3191 23.7874 92.1889 23.4891 92.1889 23.1435C92.1889 22.7931 92.3191 22.4948 92.5795 22.2486C92.8447 21.9976 93.1619 21.8722 93.5312 21.8722C93.9006 21.8722 94.2154 21.9976 94.4759 22.2486C94.741 22.4948 94.8736 22.7931 94.8736 23.1435C94.8736 23.4891 94.741 23.7874 94.4759 24.0384C94.2154 24.2846 93.9006 24.4077 93.5312 24.4077ZM103.532 26.0909V27.7955H97.5728V26.0909H103.532ZM99.1708 23.4773H101.294V33.7969C101.294 34.2088 101.356 34.5189 101.479 34.7273C101.602 34.9309 101.761 35.0705 101.955 35.1463C102.154 35.2173 102.369 35.2528 102.601 35.2528C102.772 35.2528 102.921 35.241 103.049 35.2173C103.176 35.1937 103.276 35.1747 103.347 35.1605L103.73 36.9148C103.607 36.9621 103.432 37.0095 103.205 37.0568C102.978 37.1089 102.694 37.1373 102.353 37.142C101.794 37.1515 101.273 37.0521 100.79 36.8438C100.307 36.6354 99.9165 36.3134 99.6183 35.8778C99.32 35.4422 99.1708 34.8954 99.1708 34.2372V23.4773ZM107.286 37V22.4545H109.409V27.8594H109.537C109.66 27.6321 109.838 27.3693 110.07 27.071C110.302 26.7727 110.624 26.5123 111.036 26.2898C111.447 26.0625 111.992 25.9489 112.669 25.9489C113.55 25.9489 114.336 26.1714 115.027 26.6165C115.718 27.0616 116.26 27.7031 116.653 28.5412C117.051 29.3793 117.25 30.3878 117.25 31.5668C117.25 32.7457 117.054 33.7566 116.661 34.5994C116.268 35.4375 115.728 36.0838 115.041 36.5384C114.355 36.9882 113.571 37.2131 112.69 37.2131C112.027 37.2131 111.485 37.1018 111.064 36.8793C110.647 36.6567 110.321 36.3963 110.084 36.098C109.847 35.7997 109.665 35.5346 109.537 35.3026H109.359V37H107.286ZM109.366 31.5455C109.366 32.3125 109.478 32.9848 109.7 33.5625C109.923 34.1402 110.245 34.5923 110.666 34.919C111.088 35.241 111.604 35.402 112.214 35.402C112.849 35.402 113.379 35.2339 113.805 34.8977C114.232 34.5568 114.554 34.0952 114.771 33.5128C114.994 32.9304 115.105 32.2746 115.105 31.5455C115.105 30.8258 114.996 30.1795 114.778 29.6065C114.565 29.0336 114.243 28.5814 113.812 28.25C113.386 27.9186 112.854 27.7528 112.214 27.7528C111.599 27.7528 111.078 27.9115 110.652 28.2287C110.231 28.5459 109.911 28.9886 109.693 29.5568C109.475 30.125 109.366 30.7879 109.366 31.5455ZM125.23 37.2202C124.207 37.2202 123.315 36.9858 122.552 36.517C121.79 36.0483 121.198 35.3925 120.777 34.5497C120.355 33.7069 120.145 32.7221 120.145 31.5952C120.145 30.4635 120.355 29.474 120.777 28.6264C121.198 27.7789 121.79 27.1207 122.552 26.652C123.315 26.1832 124.207 25.9489 125.23 25.9489C126.252 25.9489 127.145 26.1832 127.907 26.652C128.67 27.1207 129.261 27.7789 129.683 28.6264C130.104 29.474 130.315 30.4635 130.315 31.5952C130.315 32.7221 130.104 33.7069 129.683 34.5497C129.261 35.3925 128.67 36.0483 127.907 36.517C127.145 36.9858 126.252 37.2202 125.23 37.2202ZM125.237 35.4375C125.9 35.4375 126.449 35.2623 126.885 34.9119C127.32 34.5616 127.642 34.0952 127.85 33.5128C128.064 32.9304 128.17 32.2888 128.17 31.5881C128.17 30.892 128.064 30.2528 127.85 29.6705C127.642 29.0833 127.32 28.6122 126.885 28.2571C126.449 27.902 125.9 27.7244 125.237 27.7244C124.569 27.7244 124.015 27.902 123.575 28.2571C123.139 28.6122 122.815 29.0833 122.602 29.6705C122.394 30.2528 122.289 30.892 122.289 31.5881C122.289 32.2888 122.394 32.9304 122.602 33.5128C122.815 34.0952 123.139 34.5616 123.575 34.9119C124.015 35.2623 124.569 35.4375 125.237 35.4375ZM134.932 26.0909L137.339 30.3381L139.768 26.0909H142.091L138.689 31.5455L142.119 37H139.797L137.339 32.9233L134.889 37H132.56L135.955 31.5455L132.602 26.0909H134.932Z" fill="white"/>
</svg>
